<?xml version="1.0" encoding="utf-8"?>
<!-- Generator: Adobe Illustrator 16.0.0, SVG Export Plug-In . SVG Version: 6.00 Build 0)  -->
<!DOCTYPE svg PUBLIC "-//W3C//DTD SVG 1.1//EN" "http://www.w3.org/Graphics/SVG/1.1/DTD/svg11.dtd">
<svg version="1.1" xmlns="http://www.w3.org/2000/svg" xmlns:xlink="http://www.w3.org/1999/xlink" x="0px" y="0px" width="500px"
	 height="500px" viewBox="0 0 500 500" enable-background="new 0 0 500 500" xml:space="preserve">
<g id="BACKGROUND" display="none">
	<rect display="inline" fill="#F2F2F2" width="500" height="500"/>
	<radialGradient id="SVGID_1_" cx="250" cy="250" r="461.38" gradientUnits="userSpaceOnUse">
		<stop  offset="0.4505" style="stop-color:#FFFFFF"/>
		<stop  offset="1" style="stop-color:#000000"/>
	</radialGradient>
	<rect display="inline" opacity="0.36" fill="url(#SVGID_1_)" width="500" height="500"/>
</g>
<g id="OBJECTS">
	<g>
		<g>
			<g>
				<polygon fill="#4D4D4D" points="192.296,203.125 75.259,140.21 94.442,187.61 156.132,217.996 97.11,198.808 114.679,235.512 
					160.759,243.632 118.02,244.396 137.721,268.982 171.366,265.933 146.406,274.748 167.067,287.031 210.229,269.969 				"/>
				<radialGradient id="SVGID_2_" cx="207.6294" cy="226.3955" r="161.3196" gradientUnits="userSpaceOnUse">
					<stop  offset="0" style="stop-color:#FFFFFF"/>
					<stop  offset="1" style="stop-color:#000000"/>
				</radialGradient>
				<polygon fill="url(#SVGID_2_)" points="192.296,203.125 75.259,140.21 94.442,187.61 156.132,217.996 97.11,198.808 
					114.679,235.512 160.759,243.632 118.02,244.396 137.721,268.982 171.366,265.933 146.406,274.748 167.067,287.031 
					210.229,269.969 				"/>
				<polygon fill="#303030" points="83.13,147.046 99.358,183.437 163.289,216.877 157.633,216.877 95.424,185.896 78.458,144.095 
									"/>
				<polygon fill="#303030" points="99.85,201.387 115.587,234.499 161.239,243.023 164.436,242.597 117.718,231.548 
					105.751,203.19 				"/>
				<polygon fill="#303030" points="170.911,265.07 138.454,267.939 120.504,245.646 124.904,245.646 139.847,265.891 
					173.37,263.678 				"/>
				<polygon fill="#303030" points="148.417,274.871 166.93,286.165 189.008,277.787 188.73,276.538 167.315,283.202 
					152.721,273.483 				"/>
			</g>
			<g>
				<polygon fill="#4D4D4D" points="351.947,203.125 468.984,140.21 449.801,187.61 388.111,217.996 447.133,198.808 
					429.564,235.512 383.484,243.632 426.225,244.396 406.523,268.982 372.877,265.933 397.838,274.748 377.178,287.031 
					334.014,269.969 				"/>
				<radialGradient id="SVGID_3_" cx="342.0459" cy="230.9858" r="124.1758" gradientUnits="userSpaceOnUse">
					<stop  offset="0" style="stop-color:#FFFFFF"/>
					<stop  offset="1" style="stop-color:#000000"/>
				</radialGradient>
				<polygon fill="url(#SVGID_3_)" points="351.947,203.125 468.984,140.21 449.801,187.61 388.111,217.996 447.133,198.808 
					429.564,235.512 383.484,243.632 426.225,244.396 406.523,268.982 372.877,265.933 397.838,274.748 377.178,287.031 
					334.014,269.969 				"/>
				<polygon fill="#303030" points="461.113,147.046 444.885,183.437 380.955,216.877 386.611,216.877 448.82,185.896 
					465.785,144.095 				"/>
				<polygon fill="#303030" points="444.395,201.387 428.656,234.499 383.004,243.023 379.809,242.597 426.525,231.548 
					438.492,203.19 				"/>
				<polygon fill="#303030" points="373.332,265.07 405.789,267.939 423.74,245.646 419.34,245.646 404.396,265.891 
					370.875,263.678 				"/>
				<polygon fill="#303030" points="395.826,274.871 377.313,286.165 355.236,277.787 355.514,276.538 376.93,283.202 
					391.523,273.483 				"/>
			</g>
			<polygon fill="#A3002F" points="330.49,301.824 348.904,311.882 362.635,286.645 340.543,277.54 			"/>
			<polygon fill="#5B0000" points="353.357,287.709 334.014,301.637 339.752,280.818 			"/>
			<polygon fill="#A3002F" points="215.746,301.823 197.332,311.881 183.6,286.645 205.693,277.539 			"/>
			<polygon fill="#5B0000" points="192.878,287.709 212.221,301.636 206.484,280.817 			"/>
			<path fill="#666666" d="M361.441,192.431l-0.551-3.935l-3.146-2.4c-40.877-31.67-82.461-33.755-84.191-33.833h-0.826
				c-1.77,0.079-43.315,2.164-84.23,33.833l-3.147,2.4l-0.551,3.935c-0.157,1.062-3.855,27.027,4.524,60.192
				c7.79,30.687,27.736,73.688,78.761,104.177l5.037,2.99l5.035-2.99c51.025-30.489,71.012-73.49,78.762-104.177
				C365.297,219.458,361.6,193.493,361.441,192.431z M273.121,348.342c-93.201-55.669-78.605-154.495-78.605-154.495
				c38.909-30.096,78.605-31.749,78.605-31.749s39.734,1.652,78.604,31.749C351.725,193.847,366.32,292.673,273.121,348.342z"/>
			<radialGradient id="SVGID_4_" cx="277.7891" cy="339.1748" r="160.5806" gradientUnits="userSpaceOnUse">
				<stop  offset="0" style="stop-color:#FFFFFF"/>
				<stop  offset="1" style="stop-color:#000000"/>
			</radialGradient>
			<path fill="url(#SVGID_4_)" d="M357.154,195.5l-0.551-3.698l-2.99-2.321c-38.869-30.097-78.447-32.103-80.1-32.182h-0.787
				c-1.652,0.079-41.19,2.085-80.099,32.182l-2.99,2.321l-0.551,3.698c-0.157,1.062-3.659,25.729,4.328,57.321
				c7.396,29.191,26.359,70.067,74.906,99.062l4.801,2.872l4.799-2.872c48.547-28.994,67.549-69.87,74.906-99.062
				C360.813,221.229,357.311,196.562,357.154,195.5z M273.121,348.342c-93.201-55.669-78.605-154.495-78.605-154.495
				c38.909-30.096,78.605-31.749,78.605-31.749s39.734,1.652,78.604,31.749C351.725,193.847,366.32,292.673,273.121,348.342z"/>
			<path fill="#FFD34D" d="M273.121,348.339V162.095c0,0-39.716,1.669-78.605,31.765
				C194.516,193.86,179.937,292.682,273.121,348.339z"/>
			<radialGradient id="SVGID_5_" cx="254.1826" cy="182.4644" r="116.6269" gradientUnits="userSpaceOnUse">
				<stop  offset="0" style="stop-color:#FFFFFF"/>
				<stop  offset="1" style="stop-color:#000000"/>
			</radialGradient>
			<path fill="url(#SVGID_5_)" d="M273.121,348.339V162.095c0,0-39.716,1.669-78.605,31.765
				C194.516,193.86,179.937,292.682,273.121,348.339z"/>
			<path fill="#DC9F35" d="M273.121,348.339V162.095c0,0,39.719,1.669,78.607,31.765
				C351.729,193.86,366.307,292.682,273.121,348.339z"/>
			<radialGradient id="SVGID_6_" cx="353.1934" cy="270.3271" r="150.1367" gradientUnits="userSpaceOnUse">
				<stop  offset="0" style="stop-color:#FFFFFF"/>
				<stop  offset="1" style="stop-color:#000000"/>
			</radialGradient>
			<path fill="url(#SVGID_6_)" d="M273.121,348.339V162.095c0,0,39.719,1.669,78.607,31.765
				C351.729,193.86,366.307,292.682,273.121,348.339z"/>
			<path fill="#303030" d="M163.289,248.443l29.59,25.007l149.661,4.089l30.941-21.404l-0.697-16.051l10.01-6.649
				c0,0-23.535-25.293-23.535-25.428c0-0.134-93.25,0.967-93.25,0.967s-44.69,0.865-45.674,0.865
				c-0.983,0-28.276,1.476-29.752,1.721c-1.475,0.246-13.032,4.18-13.77,4.426c-0.738,0.246-9.497,6.722-9.497,6.722l3.35,9.506
				l0.246,6.147L163.289,248.443z"/>
			<g>
				<g>
					<g>
						<path fill="#FFFFFF" d="M174.729,253.082c-3.384-2.1-5.074-3.133-8.447-5.166l-0.967-0.583v-10.377l1.533-0.368
							c2.447-0.587,4.214-1.003,6.049-1.417c-2.53-1.542-3.94-2.391-6.605-3.978l-0.977-0.582v-13.451l0.526-0.574
							c3.245-3.538,4.87-5.291,8.126-8.769l0.423-0.453l0.605-0.134c7.367-1.626,10.982-2.346,18.418-3.669l0.785-0.14l0.666,0.439
							c3.277,2.161,4.919,3.257,8.204,5.479l0.879,0.595v10.719l-1.686,0.268c-1.887,0.3-3.369,0.541-4.787,0.781
							c2.168,1.322,3.557,2.18,6.01,3.708l0.942,0.587v14.048l-0.595,0.587c-3.439,3.395-5.156,5.107-8.587,8.568l-0.446,0.451
							l-0.624,0.11c-7.252,1.288-10.778,1.989-17.962,3.569l-0.793,0.174L174.729,253.082z M181.078,237.818
							c2.235-0.465,3.839-0.783,6.345-1.261l0.497-0.514v-0.822c-2.977,0.068-5.169,0.133-7.523,0.233L181.078,237.818z
							 M181.61,221.085c2.755-0.107,4.848-0.176,7.002-0.223l-0.533-1.859c-2.084,0.397-3.591,0.698-5.928,1.18l-0.541,0.533
							V221.085z"/>
						<path fill="#4D4D4D" d="M193.764,205.533c3.27,2.156,4.908,3.25,8.185,5.466c0,3.181,0,4.771,0,7.951
							c-4.507,0.717-6.757,1.104-11.25,1.935c-0.48-1.675-0.72-2.512-1.199-4.186c-3.337,0.626-5.004,0.956-8.333,1.646
							c-0.623,0.613-0.935,0.92-1.557,1.536c0,0.992,0,1.488,0,2.48c0.527,0.301,0.79,0.452,1.317,0.754
							c5.769-0.23,8.662-0.298,14.458-0.339c2.814,1.712,4.223,2.58,7.042,4.337c0,4.841,0,7.261,0,12.102
							c-3.445,3.4-5.166,5.117-8.603,8.583c-7.238,1.286-10.848,2.004-18.042,3.586c-3.393-2.105-5.087-3.141-8.469-5.18
							c0-3.068,0-4.603,0-7.671c4.453-1.069,6.685-1.575,11.157-2.53c0.479,1.661,0.719,2.492,1.199,4.155
							c3.494-0.736,5.244-1.087,8.748-1.754c0.6-0.621,0.9-0.931,1.5-1.551c0-1.135,0-1.702,0-2.837
							c-0.457-0.326-0.685-0.489-1.142-0.813c-5.762,0.125-8.637,0.235-14.37,0.548c-2.841-1.733-4.26-2.588-7.093-4.275
							c0-4.614,0-6.921,0-11.536c3.239-3.532,4.862-5.283,8.111-8.754C182.738,207.571,186.407,206.841,193.764,205.533
							 M194.634,201.315l-1.571,0.279c-7.378,1.313-11.182,2.07-18.499,3.686l-1.211,0.267l-0.847,0.905
							c-3.287,3.511-4.884,5.235-8.139,8.784l-1.052,1.147v1.557v11.536v2.273l1.953,1.163c0.915,0.545,1.678,1,2.388,1.426
							c-0.407,0.097-0.83,0.199-1.275,0.306l-3.066,0.736v3.153v7.671v2.259l1.935,1.167c3.38,2.037,5.033,3.049,8.426,5.152
							l1.381,0.856l1.587-0.349c7.156-1.574,10.666-2.271,17.882-3.554l1.248-0.222l0.893-0.9c3.439-3.469,5.121-5.148,8.572-8.553
							l1.19-1.175v-1.672v-12.102v-2.221l-1.884-1.174c-0.525-0.327-1-0.623-1.445-0.899l2.85-0.453v-3.415v-7.951v-2.124
							l-1.759-1.189c-3.296-2.229-4.91-3.307-8.224-5.492L194.634,201.315L194.634,201.315z"/>
					</g>
					<g>
						<path fill="#FFFFFF" d="M205.556,235.052l1.242-0.509c1.371-0.562,2.232-0.912,3.344-1.358v-18.321
							c-0.882-0.11-1.67-0.205-2.819-0.339l-1.767-0.208V201.57l1.711-0.25c12.513-1.829,18.646-2.51,31.249-3.471l0.758-0.058
							l0.605,0.461c3.526,2.684,5.291,4.043,8.821,6.796l0.77,0.601v14.922l-0.673,0.597c-3.54,3.138-5.264,4.684-8.785,7.877
							l-0.508,0.46l-0.684,0.052c-4.981,0.379-7.698,0.62-12.159,1.091v0.718c0.923,0.146,1.733,0.278,2.931,0.476l1.674,0.276
							v12.63l-1.807,0.176c-8.708,0.847-12.95,1.363-21.614,2.629l-2.29,0.335V235.052z M226.661,216.239
							c1.982-0.206,3.512-0.352,5.798-0.556l0.445-0.42v-2.426l-0.151-0.111c-2.37,0.211-3.925,0.36-6.092,0.588V216.239z"/>
						<path fill="#4D4D4D" d="M238.668,199.843c3.519,2.678,5.28,4.035,8.802,6.782c0,5.218,0,7.828,0,13.046
							c-3.522,3.123-5.283,4.701-8.802,7.892c-5.608,0.428-8.411,0.685-14.007,1.287c0,1.691,0,2.537,0,4.228
							c1.841,0.285,2.762,0.433,4.605,0.737c0,3.647,0,5.471,0,9.119c-8.702,0.846-13.046,1.375-21.71,2.641
							c0-3.672,0-5.508,0-9.181c1.833-0.751,2.75-1.122,4.585-1.854c0-8.576,0-12.863,0-21.438
							c-1.835-0.234-2.752-0.347-4.585-0.562c0-3.696,0-5.544,0-9.24C219.961,201.485,226.191,200.794,238.668,199.843
							 M224.661,218.462c3.464-0.372,5.197-0.542,8.666-0.848c0.631-0.597,0.947-0.895,1.578-1.489c0-1.721,0-2.582,0-4.303
							c-0.631-0.463-0.947-0.694-1.578-1.155c-3.469,0.306-5.202,0.475-8.666,0.848
							C224.661,214.295,224.661,215.684,224.661,218.462 M239.88,195.739l-1.517,0.116c-12.515,0.954-18.968,1.671-31.386,3.486
							l-3.421,0.5v3.458v9.24v3.558l3.533,0.415c0.386,0.045,0.731,0.086,1.052,0.125v15.199c-0.626,0.254-1.271,0.517-2.103,0.858
							l-2.483,1.018v2.684v9.181v4.627l4.579-0.67c8.623-1.26,12.846-1.773,21.519-2.617l3.613-0.351v-3.63v-9.119v-1.802
							c1.687-0.148,3.467-0.291,5.706-0.461l1.367-0.104l1.016-0.921c3.512-3.185,5.233-4.728,8.769-7.862l1.347-1.194v-1.799
							v-13.046v-1.953l-1.541-1.201c-3.544-2.764-5.279-4.101-8.84-6.811L239.88,195.739L239.88,195.739z"/>
					</g>
					<g>
						<path fill="#FFFFFF" d="M259.776,242.533c-3.679-2.927-5.476-4.339-9.157-7.196l-0.774-0.601v-29.244l0.681-0.598
							c3.582-3.143,5.327-4.656,8.892-7.712l0.539-0.461l0.708-0.019c4.912-0.135,8.013-0.185,11.44-0.185
							c1.99,0,4.113,0.017,6.697,0.049l0.715,0.009l0.549,0.46c3.592,3.024,5.338,4.512,8.898,7.58l0.695,0.599v29.254l-0.773,0.601
							c-1.535,1.192-3.066,2.403-4.598,3.63l-5.186,4.146l-0.713-0.008c-2.418-0.028-4.414-0.044-6.283-0.044
							c-3.303,0-6.293,0.047-11.033,0.174l-0.729,0.019L259.776,242.533z M266.758,228.462c2.27-0.034,3.688-0.044,5.959-0.044
							l0.414-0.338v-16.908l-0.328-0.254h-0.035c-2.303,0-3.736,0.011-6.051,0.045l-0.35,0.278v16.908L266.758,228.462z"/>
						<path fill="#4D4D4D" d="M272.109,198.517c1.982,0,4.098,0.018,6.668,0.049c3.555,2.991,5.33,4.504,8.883,7.565
							c0,10.943,0,16.416,0,27.359c-1.543,1.199-3.084,2.416-4.623,3.65c-1.543,1.234-3.082,2.468-4.623,3.697
							c-2.426-0.028-4.43-0.043-6.305-0.043c-3.502,0-6.558,0.053-11.088,0.174c-3.672-2.922-5.508-4.364-9.176-7.211
							c0-10.943,0-16.416,0-27.359c3.549-3.114,5.323-4.653,8.874-7.697C265.37,198.574,268.523,198.517,272.109,198.517
							 M266.069,230.473c2.729-0.042,4.194-0.055,6.741-0.055c0.199,0,0.404,0,0.617,0c0.682-0.557,1.021-0.834,1.703-1.388
							c0-7.534,0-11.301,0-18.835c-0.656-0.512-0.984-0.767-1.641-1.276c-0.252,0-0.492,0-0.723,0c-2.533,0-4.018,0.013-6.76,0.056
							c-0.656,0.519-0.984,0.779-1.641,1.3c0,7.534,0,11.301,0,18.835C265.048,229.654,265.389,229.926,266.069,230.473
							 M272.109,194.517L272.109,194.517c-3.449,0-6.566,0.05-11.5,0.186l-1.417,0.039l-1.076,0.923
							c-3.593,3.08-5.341,4.596-8.909,7.727l-1.362,1.195v1.812v27.359v1.959l1.548,1.201c3.683,2.858,5.476,4.267,9.137,7.181
							l1.141,0.908l1.457-0.039c4.718-0.126,7.694-0.173,10.981-0.173c1.762,0,3.693,0.013,6.258,0.044l1.428,0.016l1.115-0.89
							c0.979-0.781,1.957-1.564,2.936-2.348l1.689-1.352c1.563-1.252,3.102-2.468,4.578-3.616l1.547-1.201v-1.958v-27.359v-1.833
							l-1.389-1.197c-3.582-3.086-5.332-4.577-8.918-7.595l-1.094-0.921l-1.432-0.018
							C276.076,194.533,274.004,194.517,272.109,194.517L272.109,194.517z M268.367,212.941c0.967-0.011,1.818-0.018,2.764-0.021
							v13.5c-0.949,0.003-1.803,0.009-2.764,0.02V212.941L268.367,212.941z"/>
					</g>
					<g>
						<path fill="#FFFFFF" d="M334.258,246.967c-4.58-0.626-6.824-0.904-11.439-1.415l-1.031-0.114l-0.5-0.908
							c-1.779-3.225-3.15-5.706-4.488-8.117v8.508l-2.184-0.201c-8.707-0.804-12.965-1.094-21.695-1.478l-1.912-0.084v-12.706
							l1.574-0.343c1.244-0.271,2.07-0.449,3.041-0.653v-18.346c-1.045-0.327-1.889-0.587-3.201-0.989l-1.414-0.433v-12.81
							l2.088,0.092c12.77,0.561,18.988,1.052,31.684,2.502l0.67,0.077l0.486,0.466c3.273,3.132,4.908,4.714,8.178,7.906l0.602,0.588
							V223l-0.836,0.598c-1.848,1.323-2.98,2.138-4.508,3.247c1.172,2.004,2.014,3.45,3.295,5.654
							c0.85,0.271,3.863,1.251,3.863,1.251v13.528L334.258,246.967z M313.834,231.084c-0.514-0.923-1.057-1.895-1.645-2.947v2.373
							C312.766,230.71,313.277,230.889,313.834,231.084z M312.189,215.542c2.141,0.181,3.691,0.326,6.043,0.563l0.021-0.015v-2.631
							l-0.332-0.311c-2.25-0.227-3.758-0.369-5.732-0.537V215.542z"/>
						<path fill="#4D4D4D" d="M293.008,198.968c12.641,0.555,18.957,1.053,31.545,2.491c3.268,3.127,4.9,4.706,8.162,7.892
							c0,5.048,0,7.573,0,12.621c-2.393,1.712-3.59,2.576-5.984,4.32c1.838,3.142,2.758,4.718,4.594,7.878
							c1.281,0.408,1.924,0.614,3.205,1.032c0,3.914,0,5.87,0,9.784c-4.59-0.629-6.889-0.913-11.49-1.423
							c-3.875-7.024-5.813-10.516-9.693-17.457c-1.262-0.112-1.895-0.167-3.156-0.27c0,2.44,0,3.66,0,6.099
							c1.844,0.635,2.768,0.957,4.609,1.61c0,3.672,0,5.508,0,9.181c-8.705-0.804-13.064-1.101-21.791-1.484
							c0-3.672,0-5.508,0-9.181c1.846-0.402,2.77-0.599,4.615-0.982c0-8.575,0-12.863,0-21.438c-1.846-0.583-2.77-0.87-4.615-1.435
							C293.008,204.512,293.008,202.664,293.008,198.968 M318.797,218.172c0.584-0.429,0.875-0.643,1.457-1.07
							c0-1.803,0-2.705,0-4.508c-0.582-0.548-0.873-0.822-1.457-1.368c-3.439-0.348-5.162-0.506-8.607-0.789
							c0,2.778,0,4.167,0,6.946C313.635,217.666,315.357,217.823,318.797,218.172 M289.008,194.788v4.18v9.24v2.96l2.83,0.865
							c0.693,0.212,1.254,0.384,1.785,0.548v15.255c-0.439,0.095-0.912,0.197-1.467,0.318l-3.148,0.686v3.222v9.181v3.828
							l3.824,0.168c8.695,0.382,12.934,0.671,21.6,1.471l4.367,0.403v-2.954c0.238,0.431,0.484,0.875,0.738,1.336l1,1.814
							l2.061,0.229c4.586,0.508,6.82,0.785,11.389,1.41l4.543,0.621v-4.584v-9.784v-2.904l-2.762-0.899
							c-0.711-0.231-1.225-0.398-1.76-0.57c-0.742-1.276-1.346-2.314-1.996-3.427c0.912-0.658,1.816-1.308,3.031-2.177l1.672-1.197
							v-2.056v-12.621v-1.684l-1.205-1.177c-3.289-3.214-4.898-4.768-8.191-7.92l-0.975-0.932l-1.338-0.153
							c-12.605-1.439-19.148-1.956-31.822-2.513L289.008,194.788L289.008,194.788z"/>
					</g>
					<g>
						<path fill="#FFFFFF" d="M369.076,253.127c-9.031-1.965-13.463-2.813-22.578-4.314l-1.674-0.275v-12.678l1.855-0.133
							c1.334-0.096,2.234-0.158,3.262-0.224V216.9c-0.334-0.058-0.654-0.112-0.98-0.168l-1.201,7.462l-1.979-0.322
							c-3.572-0.583-5.316-0.85-8.885-1.359l-1.717-0.245v-21.493l2.281,0.326c16.809,2.399,25.43,4.046,41.936,8.009l1.533,0.368
							v21.566l-2.467-0.592c-3.484-0.836-5.199-1.23-8.732-2.005l-1.344-0.295l-1.193-7.923c-0.289-0.062-0.564-0.121-0.836-0.178
							v18.355c1.365,0.62,2.354,1.075,3.988,1.834l1.156,0.538v12.877L369.076,253.127z"/>
						<path fill="#4D4D4D" d="M337.18,203.081c16.803,2.399,25.172,3.994,41.75,7.974c0,6.98,0,10.471,0,17.452
							c-3.502-0.841-5.256-1.244-8.77-2.014c-0.479-3.172-0.717-4.758-1.193-7.929c-1.844-0.398-2.764-0.593-4.609-0.972
							c0,8.841,0,13.262,0,22.103c2.061,0.931,3.088,1.403,5.145,2.358c0,3.647,0,5.472,0,9.119
							c-9.037-1.967-13.574-2.833-22.678-4.334c0-3.647,0-5.471,0-9.119c2.047-0.147,3.07-0.215,5.117-0.339
							c0-8.864,0-13.296,0-22.161c-1.854-0.327-2.779-0.486-4.635-0.793c-0.48,2.987-0.723,4.481-1.203,7.471
							c-3.566-0.582-5.35-0.855-8.924-1.365C337.18,213.552,337.18,210.062,337.18,203.081 M333.18,198.469v4.611v17.452v3.47
							l3.434,0.49c3.561,0.508,5.297,0.774,8.846,1.353l2.482,0.405v7.38c-0.424,0.029-0.881,0.062-1.404,0.1l-3.713,0.267v3.723
							v9.119v3.396l3.35,0.551c9.076,1.496,13.488,2.34,22.479,4.296l4.85,1.056v-4.964v-9.119v-2.552l-2.314-1.075
							c-1.143-0.531-1.971-0.914-2.83-1.307v-6.926l0.945,0.208c3.5,0.767,5.207,1.159,8.693,1.996l4.934,1.185v-5.074v-17.452
							v-3.153l-3.066-0.736c-16.58-3.98-25.24-5.635-42.119-8.044L333.18,198.469L333.18,198.469z"/>
					</g>
				</g>
			</g>
			<polygon fill="#E80531" points="353.357,287.709 192.887,287.709 185.019,259.191 361.227,259.191 			"/>
			<radialGradient id="SVGID_7_" cx="273.123" cy="273.4502" r="63.1092" gradientUnits="userSpaceOnUse">
				<stop  offset="0" style="stop-color:#FFFFFF"/>
				<stop  offset="1" style="stop-color:#000000"/>
			</radialGradient>
			<polygon fill="url(#SVGID_7_)" points="353.357,287.709 192.887,287.709 185.019,259.191 361.227,259.191 			"/>
			
				<text transform="matrix(1 0 0 1 229.3872 282.6504)" fill="#FFFFFF" font-family="'SportsWorld'" font-size="24.8567" letter-spacing="4">logo</text>
			<g>
				<polygon fill="#4D4D4D" points="343.029,250.246 330.086,259.191 327.5,259.191 343.029,246.887 				"/>
			</g>
			<polygon fill="#4D4D4D" points="289.1,244.986 282.873,259.191 281.182,259.191 289.1,238.854 			"/>
			<polygon fill="#4D4D4D" points="232.956,246.395 242.539,259.191 244.252,259.191 232.956,238.651 			"/>
			<polygon fill="#4D4D4D" points="195.684,251.383 202.077,259.191 203.859,259.191 197.282,248.32 			"/>
			<polygon points="342.047,289.015 204.443,289.015 207.556,294.711 338.604,294.711 			"/>
		</g>
		<polygon points="352.02,287.031 359.732,260.281 352.557,260.281 346.563,287.031 		"/>
		<polygon points="194.007,286.825 186.293,260.075 193.469,260.075 199.463,286.825 		"/>
	</g>
</g>
<g id="DESIGNED_BY_FREEPIK" display="none">
</g>
</svg>
