<?xml version="1.0" encoding="UTF-8" standalone="no"?>
<!-- Generator: Adobe Illustrator 16.0.0, SVG Export Plug-In . SVG Version: 6.00 Build 0)  -->

<svg
   xmlns:dc="http://purl.org/dc/elements/1.1/"
   xmlns:cc="http://creativecommons.org/ns#"
   xmlns:rdf="http://www.w3.org/1999/02/22-rdf-syntax-ns#"
   xmlns:svg="http://www.w3.org/2000/svg"
   xmlns="http://www.w3.org/2000/svg"
   xmlns:sodipodi="http://sodipodi.sourceforge.net/DTD/sodipodi-0.dtd"
   xmlns:inkscape="http://www.inkscape.org/namespaces/inkscape"
   version="1.1"
   x="0px"
   y="0px"
   width="800"
   height="500"
   viewBox="0 0 800 500"
   enable-background="new 0 0 500 500"
   xml:space="preserve"
   id="svg154"
   sodipodi:docname="logo.svg"
   inkscape:version="0.92.4 5da689c313, 2019-01-14"><metadata
   id="metadata160"><rdf:RDF><cc:Work
       rdf:about=""><dc:format>image/svg+xml</dc:format><dc:type
         rdf:resource="http://purl.org/dc/dcmitype/StillImage" /><dc:title></dc:title></cc:Work></rdf:RDF></metadata><defs
   id="defs158" /><sodipodi:namedview
   pagecolor="#ffffff"
   bordercolor="#666666"
   borderopacity="1"
   objecttolerance="10"
   gridtolerance="10"
   guidetolerance="10"
   inkscape:pageopacity="0"
   inkscape:pageshadow="2"
   inkscape:window-width="1920"
   inkscape:window-height="1080"
   id="namedview156"
   showgrid="false"
   inkscape:zoom="0.472"
   inkscape:cx="350.63559"
   inkscape:cy="250"
   inkscape:window-x="0"
   inkscape:window-y="0"
   inkscape:window-maximized="0"
   inkscape:current-layer="svg154" />
<g
   id="BACKGROUND"
   display="none"
   style="display:none">
	<rect
   display="inline"
   width="500"
   height="500"
   id="rect2"
   x="0"
   y="0"
   style="display:inline;fill:#f2f2f2" />
	<radialGradient
   id="SVGID_1_"
   cx="250"
   cy="250"
   r="461.38"
   gradientUnits="userSpaceOnUse">
		<stop
   offset="0.4505"
   style="stop-color:#FFFFFF"
   id="stop4" />
		<stop
   offset="1"
   style="stop-color:#000000"
   id="stop6" />
	</radialGradient>
	<rect
   display="inline"
   width="500"
   height="500"
   id="rect9"
   x="0"
   y="0"
   style="display:inline;opacity:0.36000001;fill:url(#SVGID_1_)" />
</g>
<g
   id="OBJECTS"
   transform="matrix(2.0120082,0,0,2.0120082,-146.59095,-251.49391)">
	<g
   id="g150">
		<g
   id="g144">
			<g
   id="g29">
				<polygon
   points="75.259,140.21 94.442,187.61 156.132,217.996 97.11,198.808 114.679,235.512 160.759,243.632 118.02,244.396 137.721,268.982 171.366,265.933 146.406,274.748 167.067,287.031 210.229,269.969 192.296,203.125 "
   id="polygon12"
   style="fill:#4d4d4d" />
				<radialGradient
   id="SVGID_2_"
   cx="207.62939"
   cy="226.39549"
   r="161.3196"
   gradientUnits="userSpaceOnUse">
					<stop
   offset="0"
   style="stop-color:#FFFFFF"
   id="stop14" />
					<stop
   offset="1"
   style="stop-color:#000000"
   id="stop16" />
				</radialGradient>
				<polygon
   points="75.259,140.21 94.442,187.61 156.132,217.996 97.11,198.808 114.679,235.512 160.759,243.632 118.02,244.396 137.721,268.982 171.366,265.933 146.406,274.748 167.067,287.031 210.229,269.969 192.296,203.125 "
   id="polygon19"
   style="fill:url(#SVGID_2_)" />
				<polygon
   points="163.289,216.877 157.633,216.877 95.424,185.896 78.458,144.095 83.13,147.046 99.358,183.437 "
   id="polygon21"
   style="fill:#303030" />
				<polygon
   points="161.239,243.023 164.436,242.597 117.718,231.548 105.751,203.19 99.85,201.387 115.587,234.499 "
   id="polygon23"
   style="fill:#303030" />
				<polygon
   points="120.504,245.646 124.904,245.646 139.847,265.891 173.37,263.678 170.911,265.07 138.454,267.939 "
   id="polygon25"
   style="fill:#303030" />
				<polygon
   points="189.008,277.787 188.73,276.538 167.315,283.202 152.721,273.483 148.417,274.871 166.93,286.165 "
   id="polygon27"
   style="fill:#303030" />
			</g>
			<g
   id="g48">
				<polygon
   points="468.984,140.21 449.801,187.61 388.111,217.996 447.133,198.808 429.564,235.512 383.484,243.632 426.225,244.396 406.523,268.982 372.877,265.933 397.838,274.748 377.178,287.031 334.014,269.969 351.947,203.125 "
   id="polygon31"
   style="fill:#4d4d4d" />
				<radialGradient
   id="SVGID_3_"
   cx="342.0459"
   cy="230.98579"
   r="124.1758"
   gradientUnits="userSpaceOnUse">
					<stop
   offset="0"
   style="stop-color:#FFFFFF"
   id="stop33" />
					<stop
   offset="1"
   style="stop-color:#000000"
   id="stop35" />
				</radialGradient>
				<polygon
   points="468.984,140.21 449.801,187.61 388.111,217.996 447.133,198.808 429.564,235.512 383.484,243.632 426.225,244.396 406.523,268.982 372.877,265.933 397.838,274.748 377.178,287.031 334.014,269.969 351.947,203.125 "
   id="polygon38"
   style="fill:url(#SVGID_3_)" />
				<polygon
   points="380.955,216.877 386.611,216.877 448.82,185.896 465.785,144.095 461.113,147.046 444.885,183.437 "
   id="polygon40"
   style="fill:#303030" />
				<polygon
   points="383.004,243.023 379.809,242.597 426.525,231.548 438.492,203.19 444.395,201.387 428.656,234.499 "
   id="polygon42"
   style="fill:#303030" />
				<polygon
   points="423.74,245.646 419.34,245.646 404.396,265.891 370.875,263.678 373.332,265.07 405.789,267.939 "
   id="polygon44"
   style="fill:#303030" />
				<polygon
   points="355.236,277.787 355.514,276.538 376.93,283.202 391.523,273.483 395.826,274.871 377.313,286.165 "
   id="polygon46"
   style="fill:#303030" />
			</g>
			<polygon
   points="362.635,286.645 340.543,277.54 330.49,301.824 348.904,311.882 "
   id="polygon50"
   style="fill:#a3002f" />
			<polygon
   points="339.752,280.818 353.357,287.709 334.014,301.637 "
   id="polygon52"
   style="fill:#5b0000" />
			<polygon
   points="183.6,286.645 205.693,277.539 215.746,301.823 197.332,311.881 "
   id="polygon54"
   style="fill:#a3002f" />
			<polygon
   points="206.484,280.817 192.878,287.709 212.221,301.636 "
   id="polygon56"
   style="fill:#5b0000" />
			<path
   d="m 361.441,192.431 -0.551,-3.935 -3.146,-2.4 c -40.877,-31.67 -82.461,-33.755 -84.191,-33.833 h -0.826 c -1.77,0.079 -43.315,2.164 -84.23,33.833 l -3.147,2.4 -0.551,3.935 c -0.157,1.062 -3.855,27.027 4.524,60.192 7.79,30.687 27.736,73.688 78.761,104.177 l 5.037,2.99 5.035,-2.99 c 51.025,-30.489 71.012,-73.49 78.762,-104.177 8.379,-33.165 4.682,-59.13 4.523,-60.192 z m -88.32,155.911 C 179.92,292.673 194.516,193.847 194.516,193.847 c 38.909,-30.096 78.605,-31.749 78.605,-31.749 0,0 39.734,1.652 78.604,31.749 0,0 14.595,98.826 -78.604,154.495 z"
   id="path58"
   inkscape:connector-curvature="0"
   style="fill:#666666" />
			<radialGradient
   id="SVGID_4_"
   cx="277.78909"
   cy="339.1748"
   r="160.5806"
   gradientUnits="userSpaceOnUse">
				<stop
   offset="0"
   style="stop-color:#FFFFFF"
   id="stop60" />
				<stop
   offset="1"
   style="stop-color:#000000"
   id="stop62" />
			</radialGradient>
			<path
   d="m 357.154,195.5 -0.551,-3.698 -2.99,-2.321 c -38.869,-30.097 -78.447,-32.103 -80.1,-32.182 h -0.787 c -1.652,0.079 -41.19,2.085 -80.099,32.182 l -2.99,2.321 -0.551,3.698 c -0.157,1.062 -3.659,25.729 4.328,57.321 7.396,29.191 26.359,70.067 74.906,99.062 l 4.801,2.872 4.799,-2.872 c 48.547,-28.994 67.549,-69.87 74.906,-99.062 7.987,-31.592 4.485,-56.259 4.328,-57.321 z M 273.121,348.342 C 179.92,292.673 194.516,193.847 194.516,193.847 c 38.909,-30.096 78.605,-31.749 78.605,-31.749 0,0 39.734,1.652 78.604,31.749 0,0 14.595,98.826 -78.604,154.495 z"
   id="path65"
   style="fill:url(#SVGID_4_)"
   inkscape:connector-curvature="0" />
			<path
   d="M 273.121,348.339 V 162.095 c 0,0 -39.716,1.669 -78.605,31.765 0,0 -14.579,98.822 78.605,154.479 z"
   id="path67"
   inkscape:connector-curvature="0"
   style="fill:#ffd34d" />
			<radialGradient
   id="SVGID_5_"
   cx="254.1826"
   cy="182.4644"
   r="116.6269"
   gradientUnits="userSpaceOnUse">
				<stop
   offset="0"
   style="stop-color:#FFFFFF"
   id="stop69" />
				<stop
   offset="1"
   style="stop-color:#000000"
   id="stop71" />
			</radialGradient>
			<path
   d="M 273.121,348.339 V 162.095 c 0,0 -39.716,1.669 -78.605,31.765 0,0 -14.579,98.822 78.605,154.479 z"
   id="path74"
   style="fill:url(#SVGID_5_)"
   inkscape:connector-curvature="0" />
			<path
   d="M 273.121,348.339 V 162.095 c 0,0 39.719,1.669 78.607,31.765 10e-4,0 14.579,98.822 -78.607,154.479 z"
   id="path76"
   inkscape:connector-curvature="0"
   style="fill:#dc9f35" />
			<radialGradient
   id="SVGID_6_"
   cx="353.19339"
   cy="270.32709"
   r="150.1367"
   gradientUnits="userSpaceOnUse">
				<stop
   offset="0"
   style="stop-color:#FFFFFF"
   id="stop78" />
				<stop
   offset="1"
   style="stop-color:#000000"
   id="stop80" />
			</radialGradient>
			<path
   d="M 273.121,348.339 V 162.095 c 0,0 39.719,1.669 78.607,31.765 10e-4,0 14.579,98.822 -78.607,154.479 z"
   id="path83"
   style="fill:url(#SVGID_6_)"
   inkscape:connector-curvature="0" />
			<path
   d="m 163.289,248.443 29.59,25.007 149.661,4.089 30.941,-21.404 -0.697,-16.051 10.01,-6.649 c 0,0 -23.535,-25.293 -23.535,-25.428 0,-0.134 -93.25,0.967 -93.25,0.967 0,0 -44.69,0.865 -45.674,0.865 -0.983,0 -28.276,1.476 -29.752,1.721 -1.475,0.246 -13.032,4.18 -13.77,4.426 -0.738,0.246 -9.497,6.722 -9.497,6.722 l 3.35,9.506 0.246,6.147 z"
   id="path85"
   inkscape:connector-curvature="0"
   style="fill:#303030" />
			<g
   id="g119">
				<g
   id="g117">
					<g
   id="g91">
						<path
   d="m 174.729,253.082 c -3.384,-2.1 -5.074,-3.133 -8.447,-5.166 l -0.967,-0.583 v -10.377 l 1.533,-0.368 c 2.447,-0.587 4.214,-1.003 6.049,-1.417 -2.53,-1.542 -3.94,-2.391 -6.605,-3.978 l -0.977,-0.582 V 217.16 l 0.526,-0.574 c 3.245,-3.538 4.87,-5.291 8.126,-8.769 l 0.423,-0.453 0.605,-0.134 c 7.367,-1.626 10.982,-2.346 18.418,-3.669 l 0.785,-0.14 0.666,0.439 c 3.277,2.161 4.919,3.257 8.204,5.479 l 0.879,0.595 v 10.719 l -1.686,0.268 c -1.887,0.3 -3.369,0.541 -4.787,0.781 2.168,1.322 3.557,2.18 6.01,3.708 l 0.942,0.587 v 14.048 l -0.595,0.587 c -3.439,3.395 -5.156,5.107 -8.587,8.568 l -0.446,0.451 -0.624,0.11 c -7.252,1.288 -10.778,1.989 -17.962,3.569 l -0.793,0.174 z m 6.349,-15.264 c 2.235,-0.465 3.839,-0.783 6.345,-1.261 l 0.497,-0.514 v -0.822 c -2.977,0.068 -5.169,0.133 -7.523,0.233 z m 0.532,-16.733 c 2.755,-0.107 4.848,-0.176 7.002,-0.223 l -0.533,-1.859 c -2.084,0.397 -3.591,0.698 -5.928,1.18 l -0.541,0.533 z"
   id="path87"
   inkscape:connector-curvature="0"
   style="fill:#ffffff" />
						<path
   d="m 193.764,205.533 c 3.27,2.156 4.908,3.25 8.185,5.466 0,3.181 0,4.771 0,7.951 -4.507,0.717 -6.757,1.104 -11.25,1.935 -0.48,-1.675 -0.72,-2.512 -1.199,-4.186 -3.337,0.626 -5.004,0.956 -8.333,1.646 -0.623,0.613 -0.935,0.92 -1.557,1.536 0,0.992 0,1.488 0,2.48 0.527,0.301 0.79,0.452 1.317,0.754 5.769,-0.23 8.662,-0.298 14.458,-0.339 2.814,1.712 4.223,2.58 7.042,4.337 0,4.841 0,7.261 0,12.102 -3.445,3.4 -5.166,5.117 -8.603,8.583 -7.238,1.286 -10.848,2.004 -18.042,3.586 -3.393,-2.105 -5.087,-3.141 -8.469,-5.18 0,-3.068 0,-4.603 0,-7.671 4.453,-1.069 6.685,-1.575 11.157,-2.53 0.479,1.661 0.719,2.492 1.199,4.155 3.494,-0.736 5.244,-1.087 8.748,-1.754 0.6,-0.621 0.9,-0.931 1.5,-1.551 0,-1.135 0,-1.702 0,-2.837 -0.457,-0.326 -0.685,-0.489 -1.142,-0.813 -5.762,0.125 -8.637,0.235 -14.37,0.548 -2.841,-1.733 -4.26,-2.588 -7.093,-4.275 0,-4.614 0,-6.921 0,-11.536 3.239,-3.532 4.862,-5.283 8.111,-8.754 7.315,-1.615 10.984,-2.345 18.341,-3.653 m 0.87,-4.218 -1.571,0.279 c -7.378,1.313 -11.182,2.07 -18.499,3.686 l -1.211,0.267 -0.847,0.905 c -3.287,3.511 -4.884,5.235 -8.139,8.784 l -1.052,1.147 v 1.557 11.536 2.273 l 1.953,1.163 c 0.915,0.545 1.678,1 2.388,1.426 -0.407,0.097 -0.83,0.199 -1.275,0.306 l -3.066,0.736 v 3.153 7.671 2.259 l 1.935,1.167 c 3.38,2.037 5.033,3.049 8.426,5.152 l 1.381,0.856 1.587,-0.349 c 7.156,-1.574 10.666,-2.271 17.882,-3.554 l 1.248,-0.222 0.893,-0.9 c 3.439,-3.469 5.121,-5.148 8.572,-8.553 l 1.19,-1.175 v -1.672 -12.102 -2.221 l -1.884,-1.174 c -0.525,-0.327 -1,-0.623 -1.445,-0.899 l 2.85,-0.453 v -3.415 -7.951 -2.124 l -1.759,-1.189 c -3.296,-2.229 -4.91,-3.307 -8.224,-5.492 z"
   id="path89"
   inkscape:connector-curvature="0"
   style="fill:#4d4d4d" />
					</g>
					<g
   id="g97">
						<path
   d="m 205.556,235.052 1.242,-0.509 c 1.371,-0.562 2.232,-0.912 3.344,-1.358 v -18.321 c -0.882,-0.11 -1.67,-0.205 -2.819,-0.339 l -1.767,-0.208 V 201.57 l 1.711,-0.25 c 12.513,-1.829 18.646,-2.51 31.249,-3.471 l 0.758,-0.058 0.605,0.461 c 3.526,2.684 5.291,4.043 8.821,6.796 l 0.77,0.601 v 14.922 l -0.673,0.597 c -3.54,3.138 -5.264,4.684 -8.785,7.877 l -0.508,0.46 -0.684,0.052 c -4.981,0.379 -7.698,0.62 -12.159,1.091 v 0.718 c 0.923,0.146 1.733,0.278 2.931,0.476 l 1.674,0.276 v 12.63 l -1.807,0.176 c -8.708,0.847 -12.95,1.363 -21.614,2.629 l -2.29,0.335 v -12.836 z m 21.105,-18.813 c 1.982,-0.206 3.512,-0.352 5.798,-0.556 l 0.445,-0.42 v -2.426 l -0.151,-0.111 c -2.37,0.211 -3.925,0.36 -6.092,0.588 z"
   id="path93"
   inkscape:connector-curvature="0"
   style="fill:#ffffff" />
						<path
   d="m 238.668,199.843 c 3.519,2.678 5.28,4.035 8.802,6.782 0,5.218 0,7.828 0,13.046 -3.522,3.123 -5.283,4.701 -8.802,7.892 -5.608,0.428 -8.411,0.685 -14.007,1.287 0,1.691 0,2.537 0,4.228 1.841,0.285 2.762,0.433 4.605,0.737 0,3.647 0,5.471 0,9.119 -8.702,0.846 -13.046,1.375 -21.71,2.641 0,-3.672 0,-5.508 0,-9.181 1.833,-0.751 2.75,-1.122 4.585,-1.854 0,-8.576 0,-12.863 0,-21.438 -1.835,-0.234 -2.752,-0.347 -4.585,-0.562 0,-3.696 0,-5.544 0,-9.24 12.405,-1.815 18.635,-2.506 31.112,-3.457 m -14.007,18.619 c 3.464,-0.372 5.197,-0.542 8.666,-0.848 0.631,-0.597 0.947,-0.895 1.578,-1.489 0,-1.721 0,-2.582 0,-4.303 -0.631,-0.463 -0.947,-0.694 -1.578,-1.155 -3.469,0.306 -5.202,0.475 -8.666,0.848 0,2.78 0,4.169 0,6.947 m 15.219,-22.723 -1.517,0.116 c -12.515,0.954 -18.968,1.671 -31.386,3.486 l -3.421,0.5 v 3.458 9.24 3.558 l 3.533,0.415 c 0.386,0.045 0.731,0.086 1.052,0.125 v 15.199 c -0.626,0.254 -1.271,0.517 -2.103,0.858 l -2.483,1.018 v 2.684 9.181 4.627 l 4.579,-0.67 c 8.623,-1.26 12.846,-1.773 21.519,-2.617 l 3.613,-0.351 v -3.63 -9.119 -1.802 c 1.687,-0.148 3.467,-0.291 5.706,-0.461 l 1.367,-0.104 1.016,-0.921 c 3.512,-3.185 5.233,-4.728 8.769,-7.862 l 1.347,-1.194 v -1.799 -13.046 -1.953 l -1.541,-1.201 c -3.544,-2.764 -5.279,-4.101 -8.84,-6.811 z"
   id="path95"
   inkscape:connector-curvature="0"
   style="fill:#4d4d4d" />
					</g>
					<g
   id="g103">
						<path
   d="m 259.776,242.533 c -3.679,-2.927 -5.476,-4.339 -9.157,-7.196 l -0.774,-0.601 v -29.244 l 0.681,-0.598 c 3.582,-3.143 5.327,-4.656 8.892,-7.712 l 0.539,-0.461 0.708,-0.019 c 4.912,-0.135 8.013,-0.185 11.44,-0.185 1.99,0 4.113,0.017 6.697,0.049 l 0.715,0.009 0.549,0.46 c 3.592,3.024 5.338,4.512 8.898,7.58 l 0.695,0.599 v 29.254 l -0.773,0.601 c -1.535,1.192 -3.066,2.403 -4.598,3.63 l -5.186,4.146 -0.713,-0.008 c -2.418,-0.028 -4.414,-0.044 -6.283,-0.044 -3.303,0 -6.293,0.047 -11.033,0.174 l -0.729,0.019 z m 6.982,-14.071 c 2.27,-0.034 3.688,-0.044 5.959,-0.044 l 0.414,-0.338 v -16.908 l -0.328,-0.254 h -0.035 c -2.303,0 -3.736,0.011 -6.051,0.045 l -0.35,0.278 v 16.908 z"
   id="path99"
   inkscape:connector-curvature="0"
   style="fill:#ffffff" />
						<path
   d="m 272.109,198.517 c 1.982,0 4.098,0.018 6.668,0.049 3.555,2.991 5.33,4.504 8.883,7.565 0,10.943 0,16.416 0,27.359 -1.543,1.199 -3.084,2.416 -4.623,3.65 -1.543,1.234 -3.082,2.468 -4.623,3.697 -2.426,-0.028 -4.43,-0.043 -6.305,-0.043 -3.502,0 -6.558,0.053 -11.088,0.174 -3.672,-2.922 -5.508,-4.364 -9.176,-7.211 0,-10.943 0,-16.416 0,-27.359 3.549,-3.114 5.323,-4.653 8.874,-7.697 4.651,-0.127 7.804,-0.184 11.39,-0.184 m -6.04,31.956 c 2.729,-0.042 4.194,-0.055 6.741,-0.055 0.199,0 0.404,0 0.617,0 0.682,-0.557 1.021,-0.834 1.703,-1.388 0,-7.534 0,-11.301 0,-18.835 -0.656,-0.512 -0.984,-0.767 -1.641,-1.276 -0.252,0 -0.492,0 -0.723,0 -2.533,0 -4.018,0.013 -6.76,0.056 -0.656,0.519 -0.984,0.779 -1.641,1.3 0,7.534 0,11.301 0,18.835 0.683,0.544 1.024,0.816 1.704,1.363 m 6.04,-35.956 v 0 c -3.449,0 -6.566,0.05 -11.5,0.186 l -1.417,0.039 -1.076,0.923 c -3.593,3.08 -5.341,4.596 -8.909,7.727 l -1.362,1.195 v 1.812 27.359 1.959 l 1.548,1.201 c 3.683,2.858 5.476,4.267 9.137,7.181 l 1.141,0.908 1.457,-0.039 c 4.718,-0.126 7.694,-0.173 10.981,-0.173 1.762,0 3.693,0.013 6.258,0.044 l 1.428,0.016 1.115,-0.89 c 0.979,-0.781 1.957,-1.564 2.936,-2.348 l 1.689,-1.352 c 1.563,-1.252 3.102,-2.468 4.578,-3.616 l 1.547,-1.201 v -1.958 -27.359 -1.833 l -1.389,-1.197 c -3.582,-3.086 -5.332,-4.577 -8.918,-7.595 l -1.094,-0.921 -1.432,-0.018 c -2.751,-0.034 -4.823,-0.05 -6.718,-0.05 z m -3.742,18.424 c 0.967,-0.011 1.818,-0.018 2.764,-0.021 v 13.5 c -0.949,0.003 -1.803,0.009 -2.764,0.02 z"
   id="path101"
   inkscape:connector-curvature="0"
   style="fill:#4d4d4d" />
					</g>
					<g
   id="g109">
						<path
   d="m 334.258,246.967 c -4.58,-0.626 -6.824,-0.904 -11.439,-1.415 l -1.031,-0.114 -0.5,-0.908 c -1.779,-3.225 -3.15,-5.706 -4.488,-8.117 v 8.508 l -2.184,-0.201 c -8.707,-0.804 -12.965,-1.094 -21.695,-1.478 l -1.912,-0.084 v -12.706 l 1.574,-0.343 c 1.244,-0.271 2.07,-0.449 3.041,-0.653 V 211.11 c -1.045,-0.327 -1.889,-0.587 -3.201,-0.989 l -1.414,-0.433 v -12.81 l 2.088,0.092 c 12.77,0.561 18.988,1.052 31.684,2.502 l 0.67,0.077 0.486,0.466 c 3.273,3.132 4.908,4.714 8.178,7.906 l 0.602,0.588 V 223 l -0.836,0.598 c -1.848,1.323 -2.98,2.138 -4.508,3.247 1.172,2.004 2.014,3.45 3.295,5.654 0.85,0.271 3.863,1.251 3.863,1.251 v 13.528 z m -20.424,-15.883 c -0.514,-0.923 -1.057,-1.895 -1.645,-2.947 v 2.373 c 0.577,0.2 1.088,0.379 1.645,0.574 z m -1.645,-15.542 c 2.141,0.181 3.691,0.326 6.043,0.563 l 0.021,-0.015 v -2.631 l -0.332,-0.311 c -2.25,-0.227 -3.758,-0.369 -5.732,-0.537 z"
   id="path105"
   inkscape:connector-curvature="0"
   style="fill:#ffffff" />
						<path
   d="m 293.008,198.968 c 12.641,0.555 18.957,1.053 31.545,2.491 3.268,3.127 4.9,4.706 8.162,7.892 0,5.048 0,7.573 0,12.621 -2.393,1.712 -3.59,2.576 -5.984,4.32 1.838,3.142 2.758,4.718 4.594,7.878 1.281,0.408 1.924,0.614 3.205,1.032 0,3.914 0,5.87 0,9.784 -4.59,-0.629 -6.889,-0.913 -11.49,-1.423 -3.875,-7.024 -5.813,-10.516 -9.693,-17.457 -1.262,-0.112 -1.895,-0.167 -3.156,-0.27 0,2.44 0,3.66 0,6.099 1.844,0.635 2.768,0.957 4.609,1.61 0,3.672 0,5.508 0,9.181 -8.705,-0.804 -13.064,-1.101 -21.791,-1.484 0,-3.672 0,-5.508 0,-9.181 1.846,-0.402 2.77,-0.599 4.615,-0.982 0,-8.575 0,-12.863 0,-21.438 -1.846,-0.583 -2.77,-0.87 -4.615,-1.435 -0.001,-3.694 -0.001,-5.542 -0.001,-9.238 m 25.789,19.204 c 0.584,-0.429 0.875,-0.643 1.457,-1.07 0,-1.803 0,-2.705 0,-4.508 -0.582,-0.548 -0.873,-0.822 -1.457,-1.368 -3.439,-0.348 -5.162,-0.506 -8.607,-0.789 0,2.778 0,4.167 0,6.946 3.445,0.283 5.167,0.44 8.607,0.789 m -29.789,-23.384 v 4.18 9.24 2.96 l 2.83,0.865 c 0.693,0.212 1.254,0.384 1.785,0.548 v 15.255 c -0.439,0.095 -0.912,0.197 -1.467,0.318 l -3.148,0.686 v 3.222 9.181 3.828 l 3.824,0.168 c 8.695,0.382 12.934,0.671 21.6,1.471 l 4.367,0.403 v -2.954 c 0.238,0.431 0.484,0.875 0.738,1.336 l 1,1.814 2.061,0.229 c 4.586,0.508 6.82,0.785 11.389,1.41 l 4.543,0.621 v -4.584 -9.784 -2.904 l -2.762,-0.899 c -0.711,-0.231 -1.225,-0.398 -1.76,-0.57 -0.742,-1.276 -1.346,-2.314 -1.996,-3.427 0.912,-0.658 1.816,-1.308 3.031,-2.177 l 1.672,-1.197 v -2.056 -12.621 -1.684 l -1.205,-1.177 c -3.289,-3.214 -4.898,-4.768 -8.191,-7.92 l -0.975,-0.932 -1.338,-0.153 c -12.605,-1.439 -19.148,-1.956 -31.822,-2.513 z"
   id="path107"
   inkscape:connector-curvature="0"
   style="fill:#4d4d4d" />
					</g>
					<g
   id="g115">
						<path
   d="m 369.076,253.127 c -9.031,-1.965 -13.463,-2.813 -22.578,-4.314 l -1.674,-0.275 V 235.86 l 1.855,-0.133 c 1.334,-0.096 2.234,-0.158 3.262,-0.224 V 216.9 c -0.334,-0.058 -0.654,-0.112 -0.98,-0.168 l -1.201,7.462 -1.979,-0.322 c -3.572,-0.583 -5.316,-0.85 -8.885,-1.359 l -1.717,-0.245 v -21.493 l 2.281,0.326 c 16.809,2.399 25.43,4.046 41.936,8.009 l 1.533,0.368 v 21.566 l -2.467,-0.592 c -3.484,-0.836 -5.199,-1.23 -8.732,-2.005 l -1.344,-0.295 -1.193,-7.923 c -0.289,-0.062 -0.564,-0.121 -0.836,-0.178 v 18.355 c 1.365,0.62 2.354,1.075 3.988,1.834 l 1.156,0.538 v 12.877 z"
   id="path111"
   inkscape:connector-curvature="0"
   style="fill:#ffffff" />
						<path
   d="m 337.18,203.081 c 16.803,2.399 25.172,3.994 41.75,7.974 0,6.98 0,10.471 0,17.452 -3.502,-0.841 -5.256,-1.244 -8.77,-2.014 -0.479,-3.172 -0.717,-4.758 -1.193,-7.929 -1.844,-0.398 -2.764,-0.593 -4.609,-0.972 0,8.841 0,13.262 0,22.103 2.061,0.931 3.088,1.403 5.145,2.358 0,3.647 0,5.472 0,9.119 -9.037,-1.967 -13.574,-2.833 -22.678,-4.334 0,-3.647 0,-5.471 0,-9.119 2.047,-0.147 3.07,-0.215 5.117,-0.339 0,-8.864 0,-13.296 0,-22.161 -1.854,-0.327 -2.779,-0.486 -4.635,-0.793 -0.48,2.987 -0.723,4.481 -1.203,7.471 -3.566,-0.582 -5.35,-0.855 -8.924,-1.365 0,-6.98 0,-10.47 0,-17.451 m -4,-4.612 v 4.611 17.452 3.47 l 3.434,0.49 c 3.561,0.508 5.297,0.774 8.846,1.353 l 2.482,0.405 v 7.38 c -0.424,0.029 -0.881,0.062 -1.404,0.1 l -3.713,0.267 v 3.723 9.119 3.396 l 3.35,0.551 c 9.076,1.496 13.488,2.34 22.479,4.296 l 4.85,1.056 v -4.964 -9.119 -2.552 l -2.314,-1.075 c -1.143,-0.531 -1.971,-0.914 -2.83,-1.307 v -6.926 l 0.945,0.208 c 3.5,0.767 5.207,1.159 8.693,1.996 l 4.934,1.185 v -5.074 -17.452 -3.153 l -3.066,-0.736 c -16.58,-3.98 -25.24,-5.635 -42.119,-8.044 z"
   id="path113"
   inkscape:connector-curvature="0"
   style="fill:#4d4d4d" />
					</g>
				</g>
			</g>
			<polygon
   points="185.019,259.191 361.227,259.191 353.357,287.709 192.887,287.709 "
   id="polygon121"
   style="fill:#e80531" />
			<radialGradient
   id="SVGID_7_"
   cx="273.12299"
   cy="273.4502"
   r="63.1092"
   gradientUnits="userSpaceOnUse">
				<stop
   offset="0"
   style="stop-color:#FFFFFF"
   id="stop123" />
				<stop
   offset="1"
   style="stop-color:#000000"
   id="stop125" />
			</radialGradient>
			<polygon
   points="185.019,259.191 361.227,259.191 353.357,287.709 192.887,287.709 "
   id="polygon128"
   style="fill:url(#SVGID_7_)" />
			
				<text
   transform="translate(229.3872,282.6504)"
   font-size="24.8567"
   letter-spacing="4"
   id="text130"
   style="font-size:24.8567009px;font-family:SportsWorld;letter-spacing:4;fill:#ffffff">logo</text>



			<g
   id="g134">
				<polygon
   points="327.5,259.191 343.029,246.887 343.029,250.246 330.086,259.191 "
   id="polygon132"
   style="fill:#4d4d4d" />
			</g>
			<polygon
   points="281.182,259.191 289.1,238.854 289.1,244.986 282.873,259.191 "
   id="polygon136"
   style="fill:#4d4d4d" />
			<polygon
   points="244.252,259.191 232.956,238.651 232.956,246.395 242.539,259.191 "
   id="polygon138"
   style="fill:#4d4d4d" />
			<polygon
   points="203.859,259.191 197.282,248.32 195.684,251.383 202.077,259.191 "
   id="polygon140"
   style="fill:#4d4d4d" />
			<polygon
   points="207.556,294.711 338.604,294.711 342.047,289.015 204.443,289.015 "
   id="polygon142" />
		</g>
		<polygon
   points="352.557,260.281 346.563,287.031 352.02,287.031 359.732,260.281 "
   id="polygon146" />
		<polygon
   points="193.469,260.075 199.463,286.825 194.007,286.825 186.293,260.075 "
   id="polygon148" />
	</g>
</g>
<g
   id="DESIGNED_BY_FREEPIK"
   display="none"
   style="display:none">
</g>
</svg>